/* XPM */
static char *_b0e6bd972314eaea21382f0ed00347b[] = {
/* columns rows colors chars-per-pixel */
"64 64 2 1 ",
"  c None",
". c white",
/* pixels */
"                           ..........                           ",
"                      ....................                      ",
"                    ........................                    ",
"                 ..............................                 ",
"                ..........            ..........                ",
"              .........   ............   .........              ",
"             .......   ...................  .......             ",
"           ........ ........................  .......           ",
"          ....... ............................  ......          ",
"         ......  ..............................  ......         ",
"        ...... .................................. ......        ",
"       ...... ....... .........   ................ ......       ",
"       ..... .......  ........     ................ .....       ",
"      ..... ......     .....        ................ .....      ",
"     ..... ......       ...         ................. .....     ",
"     .... .....          .           ................. ....     ",
"    ..... .....                       ................  ....    ",
"   ..... .......                      ................. .....   ",
"   .... .........                   .................... ....   ",
"   .... ..........                 ..................... ....   ",
"  .... ...........                ....................... ....  ",
"  .... ..........               .......  ................ ....  ",
" ..... .........               ......     ................ .... ",
" .... .........               ......      ................ .... ",
" .... .......               ......         ............... .... ",
" .... ......               ......           ............... ... ",
" ... ......              .......             .............. ... ",
".... .......              ....               .............. ....",
".... .......              ...               ............... ....",
".... ........                             ................. ....",
".... .........                           ...... ........... ....",
".... ..........                         ......   .......... ....",
".... ..........                       .......    .......... ....",
".... ...........                     ......       ......... ....",
".... ............                   ......         ........ ....",
".... ............                 ......            ....... ....",
".... .............               ......             ....... ....",
" ... ..............              .....              ....... ... ",
" .... ..............              ..               ........ ... ",
" .... ..............              .               ........ .... ",
" .... ...............                           .......... .... ",
" .....................                         ........... .... ",
"  .... ................                      ............ ....  ",
"  .... ................                      ............ ....  ",
"   .... ................                      .......... ....   ",
"   .... .................                      ......... ....   ",
"   ..... .................                     ........ .....   ",
"    ....  ................                      ....... ....    ",
"     .... .................          ..         ...... ....     ",
"     ..... .................        ....       ...... .....     ",
"      ..... ................       .....     .......  ....      ",
"       ..... ................    ........   .......  ....       ",
"       ...... ................  .......... .......  .....       ",
"        ...... ..................................  .....        ",
"         ......  ............................... ......         ",
"          ......  ............................  ......          ",
"           .......  ........................  .......           ",
"             .......  ....................  .......             ",
"              ........   ..............   ........              ",
"                .........              .........                ",
"                 ..............................                 ",
"                    ........................                    ",
"                      ....................                      ",
"                           ..........                           "
};
