/* XPM */
static char *_723cc2c71f44590dff42f1b521d81ba[] = {
/* columns rows colors chars-per-pixel */
"32 32 2 1 ",
"  c None",
". c white",
/* pixels */
"            ........            ",
"         ..............         ",
"       ..................       ",
"      .... .......... ....      ",
"     ......................     ",
"    ... ........ ...........    ",
"   ......  ....   ...........   ",
"  ... ..    .     ............  ",
"  ......           ...........  ",
" ........         .......... .. ",
" .. .....        .............. ",
" .......       ...   .......... ",
"......        ...     ..........",
"......       ..       ..........",
"......       .        ..........",
".......             ... ........",
"........           ...   .......",
".........        ...      ......",
".........       ...       ......",
"..........       .       .......",
" ..........             ....... ",
" .. ........           ........ ",
" ...........           ..... .. ",
"  ...........           ......  ",
"  ............    ..    ......  ",
"   ...........   ...  .... ..   ",
"    ..................... ..    ",
"     ......................     ",
"      ... ............ ...      ",
"       ..................       ",
"         ..............         ",
"            ........            "
};
