/* XPM */
static char *_5c9de24c3834a04b52d40a53a9111ad[] = {
/* columns rows colors chars-per-pixel */
"16 16 2 1 ",
"  c None",
". c white",
/* pixels */
"     ......     ",
"   ..........   ",
"  ............  ",
" ...  .  ...... ",
" ...     ...... ",
"....    . ......",
"...    .   .....",
"...       ......",
"....     ..  ...",
".....   .    ...",
"......      ....",
" .....      ... ",
" ......  .  ... ",
"  ............  ",
"   ..........   ",
"     ......     "
};
