/* XPM */
static char *_7038466d1fd42f7b46d890350eea41d[] = {
/* columns rows colors chars-per-pixel */
"128 128 2 1 ",
"  c None",
". c white",
/* pixels */
"                                                         ..............                                                         ",
"                                                  ............................                                                  ",
"                                              ....................................                                              ",
"                                           ..........................................                                           ",
"                                        ................................................                                        ",
"                                      ....................................................                                      ",
"                                    ........................................................                                    ",
"                                  ............................................................                                  ",
"                                .......................                  .......................                                ",
"                               ....................                          ....................                               ",
"                             ..................       ....................       ..................                             ",
"                           .................      ............................      .................                           ",
"                          ................     ...................................     ...............                          ",
"                         ...............    ........................................     ..............                         ",
"                       ...............    .............................................    ..............                       ",
"                      ..............    .................................................    .............                      ",
"                     .............    .....................................................   .............                     ",
"                    .............   ........................................................    ............                    ",
"                   ............    ...........................................................   ............                   ",
"                  ............   ..............................................................    ...........                  ",
"                 ............   .................................................................   ...........                 ",
"                ............  ...................................  ...............................   ...........                ",
"               ...........   ..................................     ...............................   ...........               ",
"              ...........   .............   ..................       ...............................   ...........              ",
"              ..........   .............     ...............         .................................  ..........              ",
"             ..........   .............      ..............           .................................  ..........             ",
"            ..........   ............         ............             .................................  ..........            ",
"           ...........  ............           .........                .................................  ..........           ",
"           ..........  ............            ........                 .................................   .........           ",
"          ..........  ...........               .....                    .................................   .........          ",
"          .........  ...........                 ...                      .................................  .........          ",
"         .........   .........                    .                        .................................  .........         ",
"        ..........  ...........                                            ..................................  .........        ",
"        .........  ............                                             .................................  .........        ",
"       .........   .............                                            ..................................  .........       ",
"       .........  ...............                                          ....................................  ........       ",
"      .........  .................                                        .....................................  .........      ",
"      .........  .................                                      ........................................  ........      ",
"     .........  ...................                                    .........................................  .........     ",
"     .........  ....................                                  ...........................................  ........     ",
"    .........  ......................                               .............................................  .........    ",
"    .........  ......................                              ............  .................................  ........    ",
"    ........  .....................                              .............    ................................  ........    ",
"   .........  ....................                              ............      .................................  ........   ",
"   ........  ....................                              ............        ................................  ........   ",
"   ........  ..................                              .............          ...............................  ........   ",
"  .........  .................                              ............             ...............................  ........  ",
"  ........  .................                             .............              ...............................  ........  ",
"  ........  ...............                              .............                ..............................  ........  ",
"  ........  ..............                              ............                   ..............................  .......  ",
" ......... ..............                             .............                    ..............................  ........ ",
" ........  ............                              ............                       .............................  ........ ",
" ........  ...........                              ............                         ............................. ........ ",
" ........  ...........                            .............                           ............................  ....... ",
" ........ .............                            ..........                             ............................  ....... ",
" .......  ..............                           .........                              ............................  ....... ",
" .......  ..............                            ......                              ..............................  ....... ",
"........  ...............                            ....                              ...............................  ........",
"........  ................                            ..                             .................................  ........",
"........  .................                                                         ................................... ........",
"........  .................                                                        ............ ....................... ........",
"........  ..................                                                     .............   ...................... ........",
"........  ...................                                                   ............     ...................... ........",
"........  ....................                                                .............       .....................  .......",
"........  ....................                                               .............         ....................  .......",
"........  .....................                                             ............           ....................  .......",
"........  ......................                                          .............             ................... ........",
"........  .......................                                        ............                .................. ........",
"........  .......................                                       ............                  ................. ........",
"........  ........................                                    .............                   ................  ........",
"........  .........................                                  ............                      ...............  ........",
" .......  .........................                                 ............                        ..............  ....... ",
" .......  ..........................                              ............                          ..............  ....... ",
" ........ ...........................                            ............                            .............  ....... ",
" ........  ...........................                           ...........                             .............  ....... ",
" ........  ...........................                            ........                              .............. ........ ",
" ........  ............................                            ......                              ..............  ........ ",
" ......... .............................                           .....                             ................  ........ ",
"  ........  ............................                            ..                              .................  .......  ",
"  ........  .............................                                                          .................. ........  ",
"  ........  ..............................                                                       ...................  ........  ",
"  ......... ...............................                                                     ....................  ........  ",
"   ........  ..............................                                                    .....................  .......   ",
"   ........  ...............................                                                 ......................  ........   ",
"   .........  ...............................                                               .......................  ........   ",
"    ........  ................................                                            ......................... ........    ",
"    ........  ................................                                            ........................  ........    ",
"    .........  ................................                                            .......................  ........    ",
"     ........  .................................                                           ......................  ........     ",
"     .........  .................................                                           .....................  ........     ",
"      ........  .................................                                            ...................  ........      ",
"      .........  .................................                                            .................   ........      ",
"       ........   .................................                                           .................  ........       ",
"       .........  ..................................                                           ...............  .........       ",
"        .........  .................................                                            ..............  ........        ",
"        .........   .................................                                            ............  .........        ",
"         .........  ..................................                     ..                    ...........  .........         ",
"         ..........  .................................                    ....                  ...........   ........          ",
"          .........   .................................                  ......               .............  .........          ",
"           .........   .................................               .........             .............  .........           ",
"           ..........  ..................................             ..........           ..............  ..........           ",
"            ..........  .................................            ............         ..............  ..........            ",
"             ..........  .................................         ...............       ..............   .........             ",
"              ..........  .................................       .................    ...............   .........              ",
"              ...........  .................................    ...................   ...............   ..........              ",
"               ...........  ................................   ..................... ...............   ..........               ",
"                ...........   .....................................................................  ...........                ",
"                 ...........   ..................................................................   ...........                 ",
"                  ...........   ................................................................   ...........                  ",
"                   ............   .............................................................   ...........                   ",
"                    ............   ..........................................................   ............                    ",
"                     .............   ......................................................    ............                     ",
"                      .............    ...................................................   .............                      ",
"                       ..............    ...............................................    .............                       ",
"                         ..............    ...........................................    .............                         ",
"                          ...............     .....................................     ..............                          ",
"                           ................      ...............................     ................                           ",
"                             .................      ........................       ................                             ",
"                              ...................          ..........          ...................                              ",
"                                .....................                       ....................                                ",
"                                  ............................     ...........................                                  ",
"                                    ........................................................                                    ",
"                                      ....................................................                                      ",
"                                        ................................................                                        ",
"                                           ..........................................                                           ",
"                                              ....................................                                              ",
"                                                  ............................                                                  ",
"                                                        ................                                                        "
};
